<mxfile host="app.diagrams.net" modified="2023-12-04T14:30:16.399Z" agent="Mozilla/5.0 (Macintosh; Intel Mac OS X 10_15_7) AppleWebKit/537.36 (KHTML, like Gecko) Chrome/119.0.0.0 Safari/537.36" version="22.1.5" etag="qmYQlnDGsSMPiqyAlPZ4" type="device">
  <diagram id="nn1J1yHc3YMep24kOIeA" name="Page-1">
    <mxGraphModel dx="1026" dy="654" grid="1" gridSize="10" guides="1" tooltips="1" connect="1" arrows="1" fold="1" page="1" pageScale="1" pageWidth="827" pageHeight="1169" math="0" shadow="0">
      <root>
        <mxCell id="0" />
        <mxCell id="1" parent="0" />
        <mxCell id="GzYylsoMiHV3k8SSvux8-1" value="" style="rounded=0;whiteSpace=wrap;html=1;movable=1;resizable=1;rotatable=1;deletable=1;editable=1;locked=0;connectable=1;fillColor=#dae8fc;strokeColor=#6c8ebf;" vertex="1" parent="1">
          <mxGeometry x="189" y="70" width="470" height="500" as="geometry" />
        </mxCell>
        <mxCell id="GzYylsoMiHV3k8SSvux8-9" value="" style="rounded=0;whiteSpace=wrap;html=1;" vertex="1" parent="1">
          <mxGeometry x="342" y="160" width="160" height="145" as="geometry" />
        </mxCell>
        <mxCell id="GzYylsoMiHV3k8SSvux8-2" value="User Registration" style="text;html=1;strokeColor=none;fillColor=none;align=center;verticalAlign=middle;whiteSpace=wrap;rounded=0;" vertex="1" parent="1">
          <mxGeometry x="361" y="120" width="126" height="30" as="geometry" />
        </mxCell>
        <mxCell id="GzYylsoMiHV3k8SSvux8-5" value="&lt;font style=&quot;font-size: 8px;&quot;&gt;User Name&lt;/font&gt;" style="rounded=1;whiteSpace=wrap;html=1;align=left;" vertex="1" parent="1">
          <mxGeometry x="357" y="170" width="130" height="20" as="geometry" />
        </mxCell>
        <mxCell id="GzYylsoMiHV3k8SSvux8-6" value="&lt;font style=&quot;font-size: 8px;&quot;&gt;User Password&lt;/font&gt;" style="rounded=1;whiteSpace=wrap;html=1;align=left;" vertex="1" parent="1">
          <mxGeometry x="357" y="200" width="130" height="20" as="geometry" />
        </mxCell>
        <mxCell id="GzYylsoMiHV3k8SSvux8-7" value="&lt;font style=&quot;font-size: 8px;&quot;&gt;Retype user password&lt;/font&gt;" style="rounded=1;whiteSpace=wrap;html=1;align=left;" vertex="1" parent="1">
          <mxGeometry x="357" y="230" width="130" height="20" as="geometry" />
        </mxCell>
        <mxCell id="GzYylsoMiHV3k8SSvux8-8" value="&lt;font style=&quot;font-size: 8px;&quot;&gt;Create User&lt;/font&gt;" style="rounded=1;whiteSpace=wrap;html=1;fillColor=#dae8fc;strokeColor=#6c8ebf;" vertex="1" parent="1">
          <mxGeometry x="357" y="270" width="130" height="20" as="geometry" />
        </mxCell>
      </root>
    </mxGraphModel>
  </diagram>
</mxfile>
